{"title":"The Ten Commandments(1956)MP-4[DaScubaDude]","uid":12358536,"size":2804457073,"categoryP":"video","categoryS":"movies","magnet":"?xt=urn:btih:fdedd5d73172663102ef9adcfb1946a82371997d&amp;dn=The+Ten+Commandments%281956%29MP-4%5BDaScubaDude%5D&amp;tr=udp%3A%2F%2Ftracker.openbittorrent.com%3A80&amp;tr=udp%3A%2F%2Fopen.demonii.com%3A1337&amp;tr=udp%3A%2F%2Ftracker.coppersurfer.tk%3A6969&amp;tr=udp%3A%2F%2Fexodus.desync.com%3A6969","seeders":0,"leechers":0,"uploader":"dascuba","files":2,"time":1441504070,"description":"The Ten Commandments (1956)\nApproved  |  220 min  |  Adventure, Biography, Drama  |  5 October 1956 (USA)\n7.9 Your rating:   -/10   Ratings: 7.9/10 from 44,358 users   \nReviews: 222 user | 85 critic\nThe Egyptian Prince, Moses, learns of his true heritage as a Hebrew and his divine mission as the deliverer of his people.\n\nDirector: Cecil B. DeMille (as Cecil B. de Mille)\nWriters: Dorothy Clarke Wilson (this work contains material from the book &quot;Prince of Egypt&quot;), J.H. Ingraham (this work contains material from the book &quot;Pillar of Fire&quot;) (as Rev. J. H. Ingraham) , 5 more credits Â»\nStars: Charlton Heston, Yul Brynner, Anne Baxter \n\nGeneral\nComplete name          : C:The Ten CommandmentsTEN_COMMANDMENTS_DISC1_Title1.mp4\nFormat                                   : MPEG-4\nFormat profile                           : Base Media\nCodec ID                                 : isom\nFile size                                : 1.55 GiB\nDuration                                 : 2h 15mn\nOverall bit rate mode                    : Constant\nOverall bit rate                         : 1 633 Kbps\nMovie name                               : TEN_COMMANDMENTS_DISC1\nGenre                                    : Epic\nWriting application                      : Lavf54.6.100\n\nVideo\nID                                       : 1\nFormat                                   : MPEG-4 Visual\nFormat settings, BVOP                    : No\nFormat settings, QPel                    : No\nFormat settings, GMC                     : No warppoints\nFormat settings, Matrix                  : Default (H.263)\nCodec ID                                 : 20\nDuration                                 : 2h 15mn\nBit rate mode                            : Constant\nBit rate                                 : 1 500 Kbps\nWidth                                    : 720 pixels\nHeight                                   : 404 pixels\nDisplay aspect ratio                     : 16:9\nFrame rate mode                          : Constant\nFrame rate                               : 29.970 fps\nColor space                              : YUV\nChroma subsampling                       : 4:2:0\nBit depth                                : 8 bits\nScan type                                : Progressive\nCompression mode                         : Lossy\nBits/(Pixel*Frame)                       : 0.172\nStream size                              : 1.42 GiB (92%)\nWriting library                          : Lavc54.23.100\n\nAudio\nID                                       : 2\nFormat                                   : MPEG Audio\nFormat version                           : Version 1\nFormat profile                           : Layer 3\nCodec ID                                 : 6B\nDuration                                 : 2h 15mn\nBit rate mode                            : Constant\nBit rate                                 : 128 Kbps\nChannel(s)                               : 2 channels\nSampling rate                            : 44.1 KHz\nCompression mode                         : Lossy\nStream size                              : 124 MiB (8%)\nWriting library                          : LAME3.99.5","torrent":{"xt":"urn:btih:fdedd5d73172663102ef9adcfb1946a82371997d","amp;dn":"The+Ten+Commandments%281956%29MP-4%5BDaScubaDude%5D","amp;tr":["udp%3A%2F%2Ftracker.openbittorrent.com%3A80","udp%3A%2F%2Fopen.demonii.com%3A1337","udp%3A%2F%2Ftracker.coppersurfer.tk%3A6969","udp%3A%2F%2Fexodus.desync.com%3A6969"],"infoHash":"fdedd5d73172663102ef9adcfb1946a82371997d","infoHashBuffer":{"type":"Buffer","data":[253,237,213,215,49,114,102,49,2,239,154,220,251,25,70,168,35,113,153,125]},"announce":[],"urlList":[]}}